<?xml version="1.0" encoding="UTF-8"?>
<!--
  马形路线源文件 (editable) — 用 Figma / Illustrator / Inkscape / 浏览器打开。
  这条 path 的坐标系 == 代码里 src/features/route-map/projection.ts 的 horseRouteD。
  改好马脚后,把 <path> 的 d="..." 整段拷回 horseRouteD 即可(位置/缩放会自动对位进中国,
  你只管把形状/马脚改好)。
-->
<svg xmlns="http://www.w3.org/2000/svg" viewBox="120 80 540 400" width="1080" height="800">
  <rect x="120" y="80" width="540" height="400" fill="#ebdcb9" />
  <path
    d="M473,445L446,450L438.39,424.4L433.76,409.2L438.97,375.11L417.72,343.01L361.33,340.87L325.98,353.08L260.39,339.59L239.16,356.46L246.45,366.64L272.85,364.39L276.21,369.07L273.91,382L258.63,380.85L240.83,381.29L220.2,367.2L218.99,360.29L233.39,320.94L196.83,303.59L178.32,321.61L187.57,346.64L171.38,357.13L164.12,315.48L192.56,283.92L202.93,282.16L234.6,284.33L230.96,228.09L216.61,208.6L205.58,213.78L196.1,211.37L175.9,220.8L169.93,220.36L163.01,227.95L153.4,221.06L152.44,207.01L159.37,201.08L187.96,180.2L193.85,165.17L213.35,151.76L212.87,131.1L223.54,137.29L226.24,147.5L237.06,140.48L237.92,151.05L256.87,150.5L272.39,165.54L296.15,175.15L288.58,177.88L312.34,204.12L323.38,206.83L326.37,221.62L342.19,216.05L338.07,228.21L362.48,243.67L398.43,246.27L411.56,235.3L454.34,219.72L472.3,227.36L478.62,198.55L506.15,154.6L530.95,142.77L564.26,118.63L567.79,124.28L576.4,114.81L586.43,104.52L601.22,99.75L594.25,114.19L623.33,95.86L619.45,129.1L598.66,150.27L615.73,149.47L592.52,167.15L573.7,166.18L556.34,174.7L535.06,201.16L515.59,202.94L479.96,237.69L492.94,250.85L507.46,281.08L509.09,298.32L504.36,343.86L514.8,350.35L568.68,316.58L569.79,326.68L564.53,348.67L546.36,355.33L509.2,369.71L488.89,359.71L469.61,331.84L465.86,379.47L449.71,416L471.84,425L486.5,438L481.486,440.865L473,445Z"
    fill="rgba(243,210,48,0.15)"
    stroke="#f3d230"
    stroke-width="5"
    stroke-linecap="round"
    stroke-linejoin="round"
  />
</svg>
